<svg width="12" height="26" viewBox="0 0 65 79" fill="none" xmlns="http://www.w3.org/2000/svg">
<path d="M0.5 8.67926H64.5V49.0002C64.5 65.2926 51.2924 78.5002 35 78.5002H30C13.7076 78.5002 0.5 65.2926 0.5 49.0002V8.67926Z" fill="#FFFAFA" stroke="black"/>
<rect x="47.4164" y="44.141" width="25.0702" height="25.0415" transform="rotate(91.2038 47.4164 44.141)" fill="#E5E5E5" stroke="black"/>
<path d="M2.44567 53.306H62.5543C62.2884 65.6582 52.1921 75.5896 39.7761 75.5896H25.2239C12.808 75.5896 2.71163 65.6582 2.44567 53.306Z" fill="#C26D0A" fill-opacity="0.79" stroke="black"/>
<path d="M64.5 7.20901C64.5 7.50404 64.3592 7.84314 63.9825 8.22781C63.6041 8.61419 63.0203 9.01097 62.2245 9.40411C60.6348 10.1895 58.3021 10.9107 55.3787 11.5216C49.54 12.7416 41.4509 13.5001 32.5 13.5001C23.5491 13.5001 15.46 12.7416 9.6213 11.5216C6.69786 10.9107 4.36517 10.1895 2.77547 9.40411C1.97967 9.01097 1.3959 8.61419 1.01752 8.22781C0.640814 7.84314 0.5 7.50404 0.5 7.20901C0.5 6.91399 0.640814 6.57488 1.01752 6.19022C1.3959 5.80383 1.97967 5.40706 2.77547 5.01391C4.36517 4.22856 6.69786 3.50732 9.6213 2.89645C15.46 1.67643 23.5491 0.917969 32.5 0.917969C41.4509 0.917969 49.54 1.67643 55.3787 2.89645C58.3021 3.50732 60.6348 4.22856 62.2245 5.01391C63.0203 5.40706 63.6041 5.80383 63.9825 6.19022C64.3592 6.57488 64.5 6.91399 64.5 7.20901Z" fill="#FFFAFA" stroke="black"/>
</svg>
