<svg width="25" height="60" viewBox="0 0 45 101" fill="none" xmlns="http://www.w3.org/2000/svg">
<path d="M2.70589 4.91177H39.2059V35.9559C39.2059 46.0351 31.0351 54.2059 20.9559 54.2059C10.8767 54.2059 2.70589 46.0351 2.70589 35.9559V4.91177Z" fill="#FFFAFA" stroke="black"/>
<path d="M4.5 26.5H37.5V35C37.5 44.1127 30.1127 51.5 21 51.5C11.8873 51.5 4.5 44.1127 4.5 35V26.5Z" fill="#E1C2C8" stroke="black"/>
<path d="M39.2059 3.75C39.2059 3.67295 39.169 3.54101 38.9755 3.35182C38.7811 3.16182 38.4675 2.95459 38.0187 2.74234C37.1235 2.31906 35.7962 1.92467 34.1161 1.58864C30.764 0.918224 26.1109 0.5 20.9559 0.5C15.8009 0.5 11.1478 0.918224 7.79569 1.58864C6.11553 1.92467 4.78827 2.31906 3.89309 2.74234C3.44423 2.95459 3.13071 3.16182 2.93631 3.35182C2.74274 3.54101 2.70589 3.67295 2.70589 3.75C2.70589 3.82705 2.74274 3.95899 2.93631 4.14818C3.13071 4.33818 3.44423 4.54541 3.89309 4.75766C4.78827 5.18094 6.11553 5.57533 7.79569 5.91136C11.1478 6.58178 15.8009 7 20.9559 7C26.1109 7 30.764 6.58178 34.1161 5.91136C35.7962 5.57533 37.1235 5.18094 38.0187 4.75766C38.4675 4.54541 38.7811 4.33818 38.9755 4.14818C39.169 3.95899 39.2059 3.82705 39.2059 3.75Z" fill="#FFFAFA" stroke="black"/>
<path d="M44.5 96.397C44.5 96.4909 44.4508 96.6494 44.2063 96.872C43.963 97.0935 43.5756 97.3307 43.0303 97.5709C41.9432 98.0496 40.3391 98.4927 38.3183 98.8691C34.285 99.6204 28.6922 100.088 22.5 100.088C16.3078 100.088 10.715 99.6204 6.68166 98.8691C4.66091 98.4927 3.05677 98.0496 1.96969 97.5709C1.42437 97.3307 1.03704 97.0935 0.793701 96.872C0.549196 96.6494 0.5 96.4909 0.5 96.397C0.5 96.3032 0.549196 96.1447 0.793701 95.9221C1.03704 95.7006 1.42437 95.4634 1.96969 95.2232C3.05677 94.7445 4.66091 94.3014 6.68166 93.925C10.715 93.1737 16.3078 92.7059 22.5 92.7059C28.6922 92.7059 34.285 93.1737 38.3183 93.925C40.3391 94.3014 41.9432 94.7445 43.0303 95.2232C43.5756 95.4634 43.963 95.7006 44.2063 95.9221C44.4508 96.1447 44.5 96.3032 44.5 96.397Z" fill="#FFFAFA" stroke="black"/>
<line x1="23.5588" y1="54.7059" x2="23.5588" y2="95.7353" stroke="#C4C4C4" stroke-width="3"/>
</svg>
